<svg xmlns="http://www.w3.org/2000/svg" viewBox="0 0 1010.94 206.26"><script xmlns=""/><defs><style>.cls-1{fill:#df6b2a;}.cls-2{fill:#00a0af;}</style></defs><title>Eskalera_logo</title><g id="Layer_2" data-name="Layer 2"><g id="Layer_1-2" data-name="Layer 1"><path class="cls-1" d="M50.92,148.6a26.61,26.61,0,0,1-18.29-7.28l56.29-24.66h0l9.18-4a3.46,3.46,0,0,0,1.92-4.09,50.85,50.85,0,1,0-3.29,35.54,3.44,3.44,0,0,0-1.87-4.71l-16.29-6.22a3.4,3.4,0,0,0-4.2,1.56A26.73,26.73,0,0,1,50.92,148.6ZM50,95.4c6.72,0,12.7,2.41,16.58,7l-42.41,18.7C24.62,106.67,35.53,95.4,50,95.4Z"/><path class="cls-1" d="M385.85,157.78c-.7.75-1.11,1.16-1.5,1.59a39.69,39.69,0,0,1-24.92,13c-21.56,2.64-40.85-8.89-48.94-29.09a57.36,57.36,0,0,1-3.6-28.37,50.27,50.27,0,0,1,11.26-27,45,45,0,0,1,30.18-16.51,46.08,46.08,0,0,1,25.84,4,41.21,41.21,0,0,1,8.73,5.54l1.74,1.39a22.42,22.42,0,0,0,.52-3.17c.09-1,.18-2,.36-3,.38-2.14,1.47-3.07,3.66-3.2.53,0,1.07,0,1.6,0h15.56c.54,0,1.07,0,1.6,0,2.33.16,3.5,1.34,3.62,3.65,0,.53,0,1.06,0,1.6v87.2c0,.6,0,1.2,0,1.8a3.51,3.51,0,0,1-3.34,3.56,9.4,9.4,0,0,1-1.19,0c-5.26,0-10.51,0-15.77,0a8.13,8.13,0,0,1-2-.19,3.2,3.2,0,0,1-2.55-2.52,16.76,16.76,0,0,1-.33-2.36C386.2,163.25,386.05,160.73,385.85,157.78Zm-26.21-10.52c1.07,0,2.13.05,3.19,0a17.16,17.16,0,0,0,2.37-.36c8.1-1.65,14.18-6,17.38-13.73a28.52,28.52,0,0,0-.67-24,21.46,21.46,0,0,0-11-10.57,26.59,26.59,0,0,0-9.46-2.21c-6.19-.36-12,1-16.88,4.79-8.54,6.59-11.38,15.53-9.52,25.86C337.27,139.28,347.31,147.35,359.64,147.26Z"/><path class="cls-1" d="M151.86,172.8a76.12,76.12,0,0,1-37.79-9.54c-.35-.19-.71-.37-1-.59-2.3-1.45-2.84-3.2-1.55-5.58,2.49-4.62,8.17-14.7,8.54-15.07a2.73,2.73,0,0,1,3.27-.73c.9.42,1.75.94,2.62,1.43A57.59,57.59,0,0,0,154,150.41a20.8,20.8,0,0,0,7.66-1.11c2.38-.87,4.18-2.32,4.74-4.93a6.17,6.17,0,0,0-2-6.33,13,13,0,0,0-5-2.72c-4.25-1.28-8.54-2.47-12.83-3.62-6.24-1.66-12.38-3.58-18-6.77a30.17,30.17,0,0,1-11-9.87,22.94,22.94,0,0,1-3.6-11.26,27.92,27.92,0,0,1,3.84-16.43,29.06,29.06,0,0,1,10.71-10.21A43.08,43.08,0,0,1,144,71.87a78.09,78.09,0,0,1,43.44,6,45.2,45.2,0,0,1,4.43,2.28c2.09,1.22,2.56,2.82,1.61,5.08-.18.43-7.69,14.2-8.06,14.67a3,3,0,0,1-3.53,1.13,17.9,17.9,0,0,1-2.53-1.13,55.85,55.85,0,0,0-17.87-6,33.51,33.51,0,0,0-11.9-.13,15.38,15.38,0,0,0-3.75,1.28,5.71,5.71,0,0,0-3.22,4.73,5.07,5.07,0,0,0,2.65,5.37,23.92,23.92,0,0,0,5.09,2.21c5.49,1.55,11,2.92,16.55,4.39a59.61,59.61,0,0,1,14.8,5.79c5.84,3.41,10.35,8,12.13,14.68,2.75,10.26,1.3,19.8-5.87,28-3.86,4.4-8.87,7.13-14.32,9.09C167.16,171.69,160.38,172.49,151.86,172.8Z"/><path class="cls-1" d="M458.22,15.83a3.35,3.35,0,0,0-4.7-3.06L432.34,22a3.32,3.32,0,0,0-2,3.06c0,17.92,0,141.31,0,141.8.09,2.57,1.39,4,4,4q10.08.08,20.15,0c2.34,0,3.62-1.4,3.76-3.77C458.24,166.52,458.22,36.06,458.22,15.83Z"/><path class="cls-1" d="M309.82,167.11c-.42-.74-44.09-47.79-44.09-47.79s40.18-42,40.64-42.91a2.11,2.11,0,0,0-1.62-3.29,11.41,11.41,0,0,0-2.19-.12H291.39c-4.39,0-8.78,0-13.16,0a6.23,6.23,0,0,0-5,2.07Q259.73,90,246.12,104.83c-2.1,2.3-4.21,4.58-6.65,7.23V15.83a3.35,3.35,0,0,0-4.7-3.06L213.59,22a3.32,3.32,0,0,0-2,3.06c0,17.92,0,141.31,0,141.8.09,2.57,1.39,4,4,4q10.08.08,20.15,0c2.34,0,3.62-1.4,3.76-3.77,0-.53,0-1.07,0-1.6V130.64a6,6,0,0,1,.68.51l16.14,17.41q9,9.72,18,19.45a7.87,7.87,0,0,0,6.1,2.85c8.71-.05,17.42,0,26.13,0a7,7,0,0,0,1.77-.19C310.15,170.13,310.74,168.76,309.82,167.11Z"/><path class="cls-1" d="M737.85,158.29l-1.51,1.59A39.94,39.94,0,0,1,711.28,173c-21.69,2.65-41.09-8.94-49.23-29.26a57.78,57.78,0,0,1-3.62-28.53A50.66,50.66,0,0,1,669.76,88,45.23,45.23,0,0,1,700.12,71.4a46.27,46.27,0,0,1,26,4A42.3,42.3,0,0,1,734.89,81l1.75,1.41a22.57,22.57,0,0,0,.52-3.2c.09-1,.18-2,.36-3,.39-2.15,1.48-3.08,3.68-3.22.54,0,1.07,0,1.61,0h15.65c.54,0,1.08,0,1.61,0,2.34.16,3.52,1.35,3.64,3.67,0,.54,0,1.07,0,1.61V166c0,.6,0,1.21,0,1.81a3.52,3.52,0,0,1-3.35,3.58,9.79,9.79,0,0,1-1.21,0H743.29a8.78,8.78,0,0,1-2-.19,3.22,3.22,0,0,1-2.56-2.53,15.86,15.86,0,0,1-.34-2.38C738.21,163.78,738.05,161.25,737.85,158.29ZM711.49,147.7c1.07,0,2.15.05,3.21,0a17.3,17.3,0,0,0,2.38-.36c8.15-1.66,14.26-6.05,17.49-13.81a28.72,28.72,0,0,0-.68-24.1,21.6,21.6,0,0,0-11-10.63,26.6,26.6,0,0,0-9.51-2.22c-6.22-.36-12,1-17,4.81-8.59,6.63-11.44,15.63-9.58,26C689,139.67,699.09,147.79,711.49,147.7Z"/><path class="cls-1" d="M611.64,91.18s21.94-17.46,39.17-20a3.3,3.3,0,0,1,3.74,3.48c-.27,4.84-.2,16.18-.4,21.14a5,5,0,0,1-3.2,4.6c-11.54,3.87-20.91,8.12-29.17,16.84a22.63,22.63,0,0,0-6.49,15.5c0,8.83,0,23.41,0,33.48,0,4.19-1,5.22-5.2,5.22-5.89,0-18.87,0-19.46,0a3.59,3.59,0,0,1-3.4-3.57c0-.46,0-90.68,0-91.08A3.52,3.52,0,0,1,590.85,73c1.4-.08,11.43,0,15-.07,3.91-.13,4.86,2.17,5,4.85C611,81.2,611.64,91.18,611.64,91.18Z"/><path class="cls-1" d="M523.2,149.05a26.79,26.79,0,0,1-18.4-7.32l56.61-24.81h0l9.24-4a3.47,3.47,0,0,0,1.93-4.11,51.15,51.15,0,1,0-3.31,35.74,3.46,3.46,0,0,0-1.88-4.74L551,133.51a3.44,3.44,0,0,0-4.23,1.57A26.89,26.89,0,0,1,523.2,149.05Zm-.88-53.5c6.75,0,12.76,2.41,16.67,7l-42.65,18.8C496.75,106.87,507.72,95.55,522.32,95.55Z"/><polygon class="cls-2" points="884.22 138.42 939.1 130.9 939.13 103.98 884.24 114.53 884.22 138.42"/><polygon class="cls-2" points="884.18 173.85 939.05 172.59 939.08 145.42 884.21 150.16 884.18 173.85"/><path class="cls-2" d="M1004.89,3c-12.74-9.41-120.65,1.7-161.58,62.19-25.59,37.83-22.38,110,25.18,132.75,0-40.67.08-92.11.09-107.89a4.23,4.23,0,0,1,3-3.9l7.77-2.43a3.56,3.56,0,0,1,4.9,3.23v15.89l54.89-13.33,0-22.77a4.47,4.47,0,0,1,3-4.1l12.91-5A3.57,3.57,0,0,1,960,61l-.13,126.25c11.85-10.13,23-24.91,32.64-45.91C1014.59,93.38,1014.28,9.89,1004.89,3Z"/><path class="cls-2" d="M884.16,203.26c17.48,4.13,36.52,4.74,54.87-3V187.11l-54.87-.42Z"/></g></g></svg>